<svg width="26" height="34" viewBox="0 0 26 34" fill="none" xmlns="http://www.w3.org/2000/svg">
<g id="pass_2">
<path id="Vector" d="M20.3142 9.60791H23.0473C22.8538 4.32838 18.5006 0.0927734 13.175 0.0927734C7.84938 0.0927734 3.29346 4.52426 3.29346 9.97432V19.0055H6.02425V9.97432C6.02425 6.03138 9.23206 2.82587 13.1727 2.82587C17.1133 2.82587 20.123 5.8378 20.3119 9.61021L20.3142 9.60791Z" fill="url(#paint0_linear_193_3078)"/>
<path id="Vector_2" d="M24.3417 14.7195H2.00683C1.4215 14.7195 0.946777 15.1942 0.946777 15.7795V32.6759C0.946777 33.2612 1.4215 33.7359 2.00683 33.7359H24.3417C24.927 33.7359 25.4018 33.2612 25.4018 32.6759V15.7795C25.4018 15.1942 24.927 14.7195 24.3417 14.7195ZM15.2944 28.484H11.0519L11.7916 23.2276C11.2201 22.8035 10.8491 22.1283 10.8491 21.3633C10.8491 20.0797 11.8907 19.038 13.172 19.038C14.4532 19.038 15.4972 20.0797 15.4972 21.3633C15.4972 22.1283 15.1261 22.8058 14.5546 23.2276L15.2944 28.484Z" fill="url(#paint1_linear_193_3078)"/>
</g>
<defs>
<linearGradient id="paint0_linear_193_3078" x1="3.29346" y1="0.0927734" x2="3.29346" y2="19.0055" gradientUnits="userSpaceOnUse">
<stop offset="0.215" stop-color="#FFCE50"/>
<stop offset="0.485" stop-color="#F3922C"/>
<stop offset="0.745" stop-color="#FFCE50"/>
</linearGradient>
<linearGradient id="paint1_linear_193_3078" x1="0.946777" y1="14.7195" x2="0.946777" y2="33.7359" gradientUnits="userSpaceOnUse">
<stop offset="0.215" stop-color="#FFCE50"/>
<stop offset="0.485" stop-color="#F3922C"/>
<stop offset="0.745" stop-color="#FFCE50"/>
</linearGradient>
</defs>
</svg>
