<svg width="33" height="33" viewBox="0 0 33 33" fill="none" xmlns="http://www.w3.org/2000/svg">
<g id="kCGlyO">
<g id="Group">
<path id="Vector" d="M32.167 15.1942V17.2286C32.1492 17.2993 32.1211 17.3693 32.116 17.4413C31.951 19.6234 31.3808 21.6947 30.3296 23.6138C27.859 28.1219 24.0957 30.8804 19.041 31.8568C18.4619 31.9689 17.8726 32.025 17.2878 32.1065H15.2529C14.9611 32.0677 14.67 32.025 14.3782 31.9893C10.9462 31.5734 7.92571 30.218 5.44297 27.8245C1.14452 23.6813 -0.431009 18.6222 0.760988 12.7727C2.10971 6.15182 7.97859 0.986361 14.7069 0.387652C17.8669 0.106768 20.879 0.634778 23.6714 2.15448C28.1865 4.61174 30.9406 8.38552 31.9173 13.4389C32.0294 14.0185 32.0855 14.6083 32.1677 15.1936L32.167 15.1942ZM16.3105 29.1181C23.3892 29.1365 29.1529 23.3978 29.1778 16.3057C29.2033 9.22944 23.4656 3.46209 16.3723 3.43215C9.28335 3.40222 3.50175 9.15874 3.48965 16.2598C3.47754 23.3405 9.21964 29.0996 16.3105 29.1181Z" fill="url(#paint0_linear_324_2535)"/>
<path id="Vector_2" d="M15.8708 22.1872V17.7371C13.2766 19.2287 10.7327 20.6917 8.15503 22.1745V10.25C10.7206 11.7251 13.2696 13.1907 15.8683 14.6849V10.2354C19.3455 12.2359 22.7686 14.2059 26.2541 16.211C22.7852 18.2077 19.3627 20.1777 15.8715 22.1866L15.8708 22.1872Z" fill="url(#paint1_linear_324_2535)"/>
</g>
</g>
<defs>
<linearGradient id="paint0_linear_324_2535" x1="0.375488" y1="0.31543" x2="0.375488" y2="32.1065" gradientUnits="userSpaceOnUse">
<stop offset="0.215" stop-color="#FFCE50"/>
<stop offset="0.485" stop-color="#F3922C"/>
<stop offset="0.745" stop-color="#FFCE50"/>
</linearGradient>
<linearGradient id="paint1_linear_324_2535" x1="8.15503" y1="10.2354" x2="8.15503" y2="22.1872" gradientUnits="userSpaceOnUse">
<stop offset="0.215" stop-color="#FFCE50"/>
<stop offset="0.485" stop-color="#F3922C"/>
<stop offset="0.745" stop-color="#FFCE50"/>
</linearGradient>
</defs>
</svg>
