<svg width="104" height="82" viewBox="0 0 104 82" fill="none" xmlns="http://www.w3.org/2000/svg">
<g id="Objects">
<g id="Group">
<g id="Group_2">
<path id="Vector" d="M88.1847 18.4828L88.056 19.5714L87.8899 21.0331L84.1944 52.9814L84.0328 54.3755L84.0147 54.5438L33.8382 70.5031L33.6734 70.3327L32.6638 69.2449L10.7722 45.5794L9.73277 44.459L8.12873 42.7294L7.62221 42.18L8.94723 42.746L11.3748 43.7922L12.6616 44.3403L37.2001 54.8511L43.99 24.4293L44.5118 22.1019L44.8083 20.7432L44.8287 20.6644L44.9346 20.1792L45.3834 20.6084L46.4653 21.6371L53.5953 28.4067L61.1946 35.6291L65.8 40.0046L70.338 44.3112L86.3857 21.0901L87.2935 19.7718L88.1847 18.4828Z" fill="url(#paint0_linear_324_4119)"/>
<g id="Vector_2" style="mix-blend-mode:multiply" opacity="0.67">
<path d="M84.2001 52.9795L84.0402 54.379L84.0222 54.5473L33.8397 70.5085L33.6732 70.3326L32.6637 69.2448C32.9149 69.0325 33.2054 68.8618 33.5362 68.7566L82.9329 53.0453C83.3524 52.9119 83.7848 52.9008 84.1942 52.9813L84.2001 52.9795Z" fill="#F99B1C"/>
</g>
<g id="Vector_3" style="mix-blend-mode:soft-light" opacity="0.53">
<path d="M53.595 28.4066L52.3014 44.1594L50.7267 63.2829L50.5968 64.9198L50.5753 65.1795L40.3722 68.4247L40.3937 68.165L40.5295 66.5263L43.9897 24.4293L44.5115 22.1018L44.808 20.7431L44.8285 20.6644L44.9344 20.1791L45.3832 20.6084L46.465 21.637L53.595 28.4066Z" fill="white"/>
</g>
<g id="Vector_4" style="mix-blend-mode:soft-light" opacity="0.53">
<path d="M65.7998 40.0044L64.2383 58.9853L64.1084 60.6221L64.0869 60.8818L58.9883 62.5035L59.0098 62.2438L59.1397 60.6069L61.1944 35.6289L65.7998 40.0044Z" fill="white"/>
</g>
<path id="Vector_5" d="M86.7329 56.3403C87.1972 57.8002 86.458 59.3419 85.0756 59.7816L35.6789 75.4928C34.3023 75.9306 32.8041 75.1066 32.3381 73.6413C31.912 72.3017 32.4983 70.8929 33.6674 70.3345C33.7744 70.2824 33.8773 70.2376 33.9895 70.2019L83.3862 54.4906C83.5989 54.423 83.8144 54.3846 84.0267 54.3772C85.2001 54.3232 86.334 55.1065 86.7253 56.3367L86.7329 56.3403Z" fill="#FFBB33"/>
<g id="Vector_6" style="mix-blend-mode:soft-light" opacity="0.51">
<path d="M62.5251 61.1257L62.5036 61.3854L62.0327 67.1045L51.8355 70.3479L52.3065 64.6287L52.3279 64.369L62.5251 61.1257Z" fill="white"/>
</g>
<g id="Vector_7" style="mix-blend-mode:soft-light" opacity="0.51">
<path d="M76.0366 56.8282L76.0152 57.0879L75.5442 62.807L70.4456 64.4287L70.9166 58.7096L70.9381 58.4498L76.0366 56.8282Z" fill="white"/>
</g>
<g id="Group_3">
<path id="Vector_8" d="M48.6866 16.8603C48.7162 16.9532 48.7422 17.0352 48.7583 17.1265C49.1831 18.912 48.2079 20.7756 46.4651 21.637C46.2611 21.7319 46.0495 21.8233 45.8309 21.8929C45.6418 21.953 45.4552 22.0003 45.2575 22.0331C45.0065 22.0828 44.7528 22.1033 44.5057 22.1036C42.8277 22.1256 41.2924 21.205 40.682 19.6952C40.6542 19.6077 40.6205 19.5221 40.5926 19.4346C39.9892 17.5373 41.0119 15.4961 42.8993 14.6188C43.0737 14.5332 43.2593 14.4621 43.4483 14.402C45.6816 13.6917 48.0275 14.788 48.6866 16.8603Z" fill="#FDBE11"/>
<path id="Vector_9" d="M48.7583 17.1263C49.1831 18.9119 48.208 20.7754 46.4652 21.6368C46.2612 21.7318 46.0496 21.8232 45.831 21.8927C45.6419 21.9528 45.4553 22.0002 45.2575 22.0329C45.0066 22.0827 44.7529 22.1031 44.5058 22.1035C42.8278 22.1254 41.2924 21.2048 40.6821 19.695C40.6285 19.4652 40.5944 19.2352 40.5857 19.0032C41.4399 20.3391 43.1021 21.0447 44.8023 20.7448C44.8141 20.741 44.8277 20.7427 44.8436 20.7316C45.0237 20.7045 45.1985 20.6609 45.3816 20.6027L45.4171 20.5914C47.3135 19.9882 48.5108 18.2707 48.4297 16.5023C48.5566 16.6967 48.6676 16.9023 48.7507 17.1227L48.7583 17.1263Z" fill="#F99B1C"/>
<g id="Vector_10" style="mix-blend-mode:soft-light">
<path d="M45.7928 16.5163C45.8067 16.56 45.8206 16.6038 45.8328 16.6421C46.061 17.6051 45.4509 18.6119 44.417 18.9408C43.3831 19.2696 42.3035 18.8002 41.9335 17.8823C41.9196 17.8385 41.9074 17.8003 41.8935 17.7565C41.5752 16.7559 42.194 15.674 43.2692 15.332C44.3445 14.99 45.4762 15.5212 45.7928 16.5163Z" fill="white"/>
</g>
</g>
<g id="Group_4">
<path id="Vector_11" d="M91.1895 15.8831C91.219 15.9761 91.2451 16.0581 91.2611 16.1493C91.7385 18.141 90.4707 20.23 88.332 20.9103C88.1843 20.9573 88.0349 20.9988 87.882 21.0293C87.3701 21.138 86.8616 21.1552 86.3778 21.0863C84.9545 20.9068 83.7191 20.0293 83.1908 18.7162C83.163 18.6287 83.1293 18.5431 83.1014 18.4556C82.4441 16.3888 83.718 14.1352 85.9571 13.423C88.1962 12.7108 90.5363 13.809 91.1954 15.8812L91.1895 15.8831Z" fill="#FDBE11"/>
<path id="Vector_12" d="M91.2612 16.1493C91.7385 18.141 90.4708 20.23 88.3321 20.9103C88.1844 20.9572 88.035 20.9988 87.882 21.0293C87.3701 21.138 86.8616 21.1552 86.3778 21.0863C84.9545 20.9068 83.7191 20.0293 83.1909 18.7162C83.1373 18.4864 83.1032 18.2564 83.0944 18.0244C83.9452 19.3493 85.6015 20.0568 87.2916 19.7661C87.5029 19.735 87.7149 19.6856 87.9276 19.618C87.9689 19.6048 88.0162 19.5898 88.0558 19.5712C89.8775 18.9376 91.0209 17.2553 90.9402 15.5289C91.0671 15.7233 91.1781 15.9289 91.2612 16.1493Z" fill="#F99B1C"/>
<g id="Vector_13" style="mix-blend-mode:soft-light">
<path d="M88.3032 15.5428C88.3171 15.5866 88.331 15.6303 88.3432 15.6686C88.5714 16.6316 87.9614 17.6385 86.9334 17.9654C85.9054 18.2924 84.8199 17.8248 84.4498 16.9069C84.4359 16.8632 84.4238 16.8249 84.4098 16.7812C84.0916 15.7806 84.7103 14.6987 85.7856 14.3567C86.8608 14.0147 87.9926 14.5458 88.3091 15.541L88.3032 15.5428Z" fill="white"/>
</g>
</g>
<g id="Group_5">
<path id="Vector_14" d="M13.5232 40.586C13.5528 40.679 13.5789 40.761 13.5949 40.8522C14.0722 42.8438 12.8045 44.9329 10.6658 45.6132C8.52709 46.2934 6.29138 45.3186 5.52456 43.4191C5.49673 43.3316 5.463 43.246 5.43518 43.1585C4.7778 41.0917 6.05174 38.8381 8.29087 38.1259C10.53 37.4137 12.87 38.5118 13.5291 40.5841L13.5232 40.586Z" fill="#FDBE11"/>
<path id="Vector_15" d="M13.5949 40.8522C14.0722 42.8438 12.8045 44.9329 10.6658 45.6131C8.52714 46.2934 6.29143 45.3186 5.52461 43.4191C5.47103 43.1893 5.43691 42.9593 5.42817 42.7272C6.38361 44.2176 8.35894 44.9259 10.2554 44.3227C12.1519 43.7196 13.3491 42.0021 13.2681 40.2337C13.395 40.4281 13.5059 40.6337 13.589 40.8541L13.5949 40.8522Z" fill="#F99B1C"/>
<g id="Vector_16" style="mix-blend-mode:soft-light">
<path d="M10.637 40.2455C10.6509 40.2893 10.6648 40.333 10.677 40.3713C10.9052 41.3343 10.2952 42.3412 9.26126 42.67C8.22736 42.9989 7.14774 42.5294 6.77772 41.6115C6.76381 41.5678 6.75163 41.5295 6.73772 41.4858C6.41947 40.4852 7.0382 39.4033 8.11345 39.0613C9.18871 38.7193 10.3205 39.2504 10.637 40.2455Z" fill="white"/>
</g>
</g>
</g>
<g id="Vector_17" style="mix-blend-mode:multiply" opacity="0.55">
<path d="M91.1897 15.8832C91.2193 15.9762 91.2454 16.0582 91.2614 16.1494C91.7387 18.1411 90.471 20.2301 88.3323 20.9104C88.1846 20.9574 88.0352 20.9989 87.8822 21.0294L84.1867 52.9777L84.0268 54.3773C85.2002 54.3232 86.3341 55.1065 86.7254 56.3368C87.1897 57.7967 86.4505 59.3383 85.068 59.778L59.8173 67.8093L42.8994 14.6188C43.0738 14.5332 43.2594 14.4622 43.4485 14.4021C45.6817 13.6917 48.0276 14.788 48.6867 16.8603C48.7163 16.9532 48.7424 17.0353 48.7584 17.1265C49.1832 18.9121 48.208 20.7756 46.4652 21.637L53.5952 28.4066L61.2005 35.6271L65.8 40.0045L70.338 44.3111L86.3839 21.0845C84.9607 20.905 83.7252 20.0276 83.197 18.7144C83.1691 18.6269 83.1354 18.5413 83.1076 18.4539C82.4502 16.387 83.7242 14.1334 85.9633 13.4212C88.2024 12.7091 90.5424 13.8072 91.2015 15.8795L91.1897 15.8832Z" fill="#F99B1C"/>
</g>
</g>
</g>
<defs>
<linearGradient id="paint0_linear_324_4119" x1="4.69531" y1="32.9778" x2="18.2116" y2="75.4733" gradientUnits="userSpaceOnUse">
<stop offset="0.215" stop-color="#FFCE50"/>
<stop offset="0.485" stop-color="#F3922C"/>
<stop offset="0.745" stop-color="#FFCE50"/>
</linearGradient>
</defs>
</svg>
